HIERARCHY
ROOT Hips
{
    OFFSET 0.0 0.0 0.0
    CHANNELS 6 Xposition Yposition Zposition Zrotation Xrotation Yrotation
    JOINT LeftHipJoint
    {
        OFFSET 0.1 0.0 0.0
        CHANNELS 3 Zrotation Xrotation Yrotation
        JOINT LeftUpLeg
        {
            OFFSET 0.12160097062587738 0.0 0.0
            CHANNELS 3 Zrotation Xrotation Yrotation
            JOINT LeftLeg
            {
                OFFSET 0.0 0.0 -0.4276740550994873
                CHANNELS 3 Zrotation Xrotation Yrotation
                JOINT LeftFoot
                {
                    OFFSET 0.0 0.0 -0.3522098660469055
                    CHANNELS 3 Zrotation Xrotation Yrotation
                    End Site
                    {
                        OFFSET 0.0 -0.1 0.0
                    }
                }
            }
        }
    }
    JOINT LowerBack
    {
        OFFSET 0.0 0.0 0.1
        CHANNELS 3 Zrotation Xrotation Yrotation
        JOINT Spine
        {
            OFFSET 0.0 0.0 0.31921684741973877
            CHANNELS 3 Zrotation Xrotation Yrotation
            JOINT Spine1
            {
                OFFSET 0.0 0.0 0.31386318802833557
                CHANNELS 3 Zrotation Xrotation Yrotation
                JOINT LeftShoulder
                {
                    OFFSET 0.1 0.0 0.0
                    CHANNELS 3 Zrotation Xrotation Yrotation
                    JOINT LeftArm
                    {
                        OFFSET 0.1926540732383728 0.0 0.0
                        CHANNELS 3 Zrotation Xrotation Yrotation
                        JOINT LeftForeArm
                        {
                            OFFSET 0.2706642150878906 0.0 0.0
                            CHANNELS 3 Zrotation Xrotation Yrotation
                            JOINT LeftHand
                            {
                                OFFSET 0.2649575471878052 0.0 0.0
                                CHANNELS 3 Zrotation Xrotation Yrotation
                                End Site
                                {
                                    OFFSET 0.1 0.0 0.0
                                }
                            }
                        }
                    }
                }
                JOINT Neck
                {
                    OFFSET 0.0 0.0 0.1
                    CHANNELS 3 Zrotation Xrotation Yrotation
                    JOINT Neck1
                    {
                        OFFSET 0.0 0.0 0.16692572832107544
                        CHANNELS 3 Zrotation Xrotation Yrotation
                        End Site
                        {
                            OFFSET 0.0 0.0 0.16344915330410004
                        }
                    }
                }
                JOINT RightShoulder
                {
                    OFFSET -0.1 0.0 0.0
                    CHANNELS 3 Zrotation Xrotation Yrotation
                    JOINT RightArm
                    {
                        OFFSET -0.1926540732383728 0.0 0.0
                        CHANNELS 3 Zrotation Xrotation Yrotation
                        JOINT RightForeArm
                        {
                            OFFSET -0.2706642150878906 0.0 0.0
                            CHANNELS 3 Zrotation Xrotation Yrotation
                            JOINT RightHand
                            {
                                OFFSET -0.2649575471878052 0.0 0.0
                                CHANNELS 3 Zrotation Xrotation Yrotation
                                End Site
                                {
                                    OFFSET -0.1 0.0 0.0
                                }
                            }
                        }
                    }
                }
            }
        }
    }
    JOINT RightHipJoint
    {
        OFFSET -0.1 0.0 0.0
        CHANNELS 3 Zrotation Xrotation Yrotation
        JOINT RightUpLeg
        {
            OFFSET -0.12160097062587738 0.0 0.0
            CHANNELS 3 Zrotation Xrotation Yrotation
            JOINT RightLeg
            {
                OFFSET 0.0 0.0 -0.4276740550994873
                CHANNELS 3 Zrotation Xrotation Yrotation
                JOINT RightFoot
                {
                    OFFSET 0.0 0.0 -0.3522098660469055
                    CHANNELS 3 Zrotation Xrotation Yrotation
                    End Site
                    {
                        OFFSET 0.0 -0.1 0.0
                    }
                }
            }
        }
    }
}
MOTION
Frames: 7
Frame Time: 0.03333333333333333
-0.0518098920583725 -0.15438461303710938 0.0028197932988405228 -167.40135343141526 85.65195958818082 -17.687561915016424 0.0 6.361109362927033e-15 0.0 0.11650012792502068 -6.138441261889907 1.7559838998655775 1.0253745863847321 -8.25149651565992 1.5569765519312786 -2.981770013872047e-16 6.3611093629270335e-15 1.6552148617688095e-32 0.0 6.361109362927033e-15 0.0 0.10329082149945705 -4.299490566733232 -0.3560467675395119 -0.40504484298310456 1.5792946651885666e-06 -8.735671488748146e-09 3.975693351829396e-16 -6.3611093629270335e-15 2.2069531490250793e-32 173.48283898030644 -40.35230069803927 169.94139661691403 -21.958390407845556 8.668197906894598e-07 -4.197945500135568e-07 0.0 -6.361109362927033e-15 0.0 3.975693351829396e-16 -6.3611093629270335e-15 2.2069531490250793e-32 -176.4143559645374 14.602611589041727 -3.808273381533172 3.975693351829396e-16 -6.3611093629270335e-15 2.2069531490250793e-32 175.66111997775386 -40.80551485884641 174.72560279135968 20.22840815801473 2.7471892718314483e-06 -9.543032785766672e-07 3.1805546814635168e-15 -4.4139062980501586e-32 -1.5902773407317584e-15 0.0 6.361109362927033e-15 0.0 0.11716866790051403 -6.719164823995622 -0.5456744918958774 -0.7476414463568966 -7.753820831506241 4.983878407840004 -1.517280289954742e-32 1.2722218725854067e-14 1.3666445896913547e-16
-0.05134474113583565 -0.14989270269870758 0.002740458119660616 -166.08331573403436 85.79691592962868 -19.02193588012734 -3.975693351829396e-16 6.3611093629270335e-15 3.975693351829396e-16 0.4111376579893587 -6.352136611878175 2.0402313626521407 0.9674470749808975 -8.044738362671717 1.2652877522128148 -1.4908850069360235e-16 0.0 0.0 -3.975693351829396e-16 6.3611093629270335e-15 3.975693351829396e-16 0.11418061543500488 -4.548496152172077 -0.08205122309438577 -0.4210053561196673 2.60487644260863e-06 2.0943692344864017e-07 -3.9756933518293955e-16 -1.3793457181406746e-33 3.9756933518293955e-16 -176.80813109587845 -42.03779800879252 -176.84088422729712 -21.24342104876113 -4.69423161367076e-06 -2.6812566315396793e-07 0.0 0.0 0.0 -3.9756933518293955e-16 -1.3793457181406746e-33 3.9756933518293955e-16 -177.44145114177627 15.06319220667896 -3.0510949468657 -3.9756933518293955e-16 -1.3793457181406746e-33 3.9756933518293955e-16 167.68117994540265 -37.235410559501034 163.22274238924487 18.677677588476993 3.383894509837326e-06 -8.538145458752471e-07 3.1805546814635168e-15 2.2069531490250793e-32 7.951386703658792e-16 -3.975693351829396e-16 6.3611093629270335e-15 3.975693351829396e-16 -0.1558334832258555 -6.993177585124724 -0.6681486504600729 -0.6871129853699258 -7.408358649885395 5.1156694099770235 1.987846675914698e-16 2.155227684594804e-34 1.2424041724466862e-16
-0.05101000517606735 -0.14342881739139557 0.002582410117611289 -164.72364068711053 85.89025097409936 -20.369710937957407 3.975693351829396e-16 -6.3611093629270335e-15 2.2069531490250793e-32 0.7843268651511085 -6.632796276987015 2.3707333441434852 0.8778328309986702 -7.6630942176269325 0.737785880290189 5.590818776010089e-17 0.0 0.0 3.975693351829396e-16 -6.3611093629270335e-15 2.2069531490250793e-32 0.13114835697529145 -4.949893567056035 0.11421044864608969 -0.36844946440053694 1.5620222669483782e-06 3.0556556656219515e-07 0.0 0.0 3.9756933518293955e-16 -166.59371196273247 -40.57390844205443 -162.70294829238708 -20.055968041434213 1.4869233228563643e-06 -7.682909988504958e-08 -6.3611093629270335e-15 0.0 0.0 0.0 0.0 3.9756933518293955e-16 -177.47166009972048 15.164882158549492 -2.6918881045148364 0.0 0.0 3.9756933518293955e-16 161.62144386581085 -32.044873101164576 152.68718477130662 17.272001507431497 2.8899313972101746e-06 -8.285907701952816e-07 3.1805546814635164e-15 2.2069531490250793e-32 7.951386703658791e-16 3.975693351829396e-16 -6.3611093629270335e-15 2.2069531490250793e-32 -0.49671251236637526 -7.323903014616516 -0.6191728485296214 -0.6219522614889306 -6.82355050169085 4.974505092358432 -5.517382872562698e-33 -6.3611093629270335e-15 -9.93923337957349e-17
-0.05053766816854477 -0.1372503936290741 0.0023147875908762217 -163.5252916933007 85.90717595094553 -21.50777666894796 0.0 0.0 0.0 1.1319795236276995 -6.806311033670517 2.5793276238172482 0.7974076287250539 -7.35466546077728 0.5455695733423629 2.981770013872048e-16 -1.034509288605506e-33 -3.975693351829397e-16 0.0 0.0 0.0 0.13129107015536354 -5.136539279107106 0.2107817378183182 -0.26711532843014857 4.903650486329573e-09 -4.655625030478929e-07 3.975693351829396e-16 -6.3611093629270335e-15 7.951386703658792e-16 -156.94551938591897 -37.47730668350063 -148.66334242485976 -19.38949139800393 -3.5054651032626487e-06 1.6886837593299317e-06 -6.3611093629270335e-15 -6.3611093629270335e-15 -1.5902773407317588e-15 3.975693351829396e-16 -6.3611093629270335e-15 7.951386703658792e-16 -178.51982200655928 15.661853567435628 -2.2266322390480737 3.975693351829396e-16 -6.3611093629270335e-15 7.951386703658792e-16 157.4756953661705 -26.468986798393043 143.62091103283348 16.050326718427232 4.142345008560317e-06 -1.0418087304793203e-06 0.0 0.0 -1.4908850069360234e-15 0.0 0.0 0.0 -0.8574712065147145 -7.58056846635453 -0.505985891230218 -0.5846901377763344 -6.273449345852107 4.437323078215905 0.0 0.0 -7.454425034680117e-17
-0.050293441861867905 -0.13300158083438873 0.002438822528347373 -161.60321520412552 85.94049131503004 -23.281281880918854 0.0 -6.3611093629270335e-15 0.0 1.2135508586813977 -6.955789190064595 2.5136853106462693 0.8008554757812543 -7.224614701774737 0.6490825232837784 1.4908850069360235e-16 0.0 0.0 0.0 -6.3611093629270335e-15 0.0 0.1345320279887672 -5.3403634306303855 0.2342377141251526 -0.2092231423691829 -4.1434677744289326e-08 6.932212057726577e-08 -3.9756933518293955e-16 -1.3793457181406746e-33 3.9756933518293955e-16 -150.52162487574392 -31.794392419243234 -137.0342264874384 -18.505219972336683 -7.055052279595285e-06 -2.6165483886378336e-06 -6.361109362927032e-15 2.427648463927587e-31 -4.373262687012335e-15 -3.9756933518293955e-16 -1.3793457181406746e-33 3.9756933518293955e-16 -179.32115071159097 15.93604704939756 -1.6995274110791092 -3.9756933518293955e-16 -1.3793457181406746e-33 3.9756933518293955e-16 153.74526079355144 -22.55381932184033 135.4250596619262 15.521304855365388 3.064999410018125e-06 -1.963820147934542e-06 2.648343778830095e-31 -6.361109362927032e-15 4.7708320221952736e-15 0.0 -6.3611093629270335e-15 0.0 -0.9460660985929371 -7.799995432260215 -0.43381287612351177 -0.5624064320969295 -5.8226728467008755 3.763485618924663 -1.3793457181406746e-32 6.3611093629270335e-15 2.4848083448933725e-16
-0.04990241676568985 -0.12815523147583008 0.0026273305993527174 -160.45719849839253 85.94740319203123 -24.30844614593942 3.975693351829396e-16 1.3793457181406746e-33 3.975693351829396e-16 1.2537891010403037 -7.084555050550468 2.568396267154771 0.7793679390755783 -7.129938479660198 0.5521881318952268 1.987846675914698e-16 -1.2722218725854067e-14 2.2069531490250793e-32 3.975693351829396e-16 1.3793457181406746e-33 3.975693351829396e-16 0.1281005620306164 -5.528692653266323 0.15804553956616893 -0.07946881911700446 -1.1081631189926126e-06 -3.9873211844383475e-08 -3.975693351829396e-16 0.0 0.0 -147.35656423339046 -25.46124719714016 -127.85540925876445 -18.5769437382354 -4.317372702058843e-06 -1.1833274235079682e-06 0.0 0.0 1.590277340731758e-15 -3.975693351829396e-16 0.0 0.0 179.41006407266295 16.14263347464025 -1.341978195603773 -3.975693351829396e-16 0.0 0.0 148.3420378968677 -20.951605469560093 127.42418626012956 16.154887309385177 3.6696701211955474e-06 -3.763382232475668e-07 3.089734408635111e-31 6.3611093629270335e-15 -5.565970692561154e-15 3.975693351829396e-16 1.3793457181406746e-33 3.975693351829396e-16 -1.016442131206742 -8.016569002892782 -0.47050105270035064 -0.5359215183093983 -5.415887316603555 3.117826479255665 0.0 0.0 1.987846675914698e-16
-0.05011105537414551 -0.12409903854131699 0.002691377652809024 -159.73007136648752 85.87825217076927 -24.948919854891738 -3.975693351829395e-16 6.361109362927032e-15 3.975693351829395e-16 1.2988466575350062 -7.158940566273118 2.615067450425448 0.7630867930500873 -6.929525892922843 0.31914052636548984 -1.9878466759146975e-16 -6.896728590703373e-34 3.975693351829395e-16 -3.975693351829395e-16 6.361109362927032e-15 3.975693351829395e-16 0.12548655661182986 -5.580960397958087 0.1702590275256589 -0.04660701503849673 -1.11030062189329e-06 2.244259302499359e-08 -4.4139062980501586e-32 -6.361109362927035e-15 -7.951386703658794e-16 -147.77519205726836 -19.522489216610307 -121.75913734903553 -18.43630754107829 5.00522148612417e-06 3.676029844024927e-06 -6.3611093629270335e-15 4.413906298050159e-31 -7.951386703658792e-15 -4.4139062980501586e-32 -6.361109362927035e-15 -7.951386703658794e-16 179.08258253494733 16.360084733504248 -0.9887683192504778 -4.4139062980501586e-32 -6.361109362927035e-15 -7.951386703658794e-16 144.51993895839274 -18.78773569067268 120.9487447051572 17.131331393695405 -5.506668628845901e-06 -3.824514546939337e-06 6.3611093629270335e-15 4.4139062980501586e-32 7.951386703658792e-16 -3.975693351829395e-16 6.361109362927032e-15 3.975693351829395e-16 -1.0553330048175469 -8.065883355352048 -0.5180606471457551 -0.508170236465504 -5.090851328547083 2.7615987472373797 -3.9756933518293955e-16 6.361109362927033e-15 2.2069531490250793e-32
